<?xml version="1.0" encoding="UTF-8" standalone="no"?>
<svg
   xmlns:dc="http://purl.org/dc/elements/1.1/"
   xmlns:cc="http://creativecommons.org/ns#"
   xmlns:rdf="http://www.w3.org/1999/02/22-rdf-syntax-ns#"
   xmlns:svg="http://www.w3.org/2000/svg"
   xmlns="http://www.w3.org/2000/svg"
   xmlns:sodipodi="http://sodipodi.sourceforge.net/DTD/sodipodi-0.dtd"
   xmlns:inkscape="http://www.inkscape.org/namespaces/inkscape"
   viewBox="0 0 43.164057 43.164058"
   id="svg2"
   version="1.1"
   inkscape:version="0.91 r13725"
   sodipodi:docname="icn-tab.svg"
   inkscape:export-filename="/Users/felixbusch/Documents/03_CS/97_Homepage/03_Code_Netlify/img/icn-tab.png"
   inkscape:export-xdpi="90"
   inkscape:export-ydpi="90"
   width="43.164059"
   height="43.164059">
  <metadata
     id="metadata14">
    <rdf:RDF>
      <cc:Work
         rdf:about="">
        <dc:format>image/svg+xml</dc:format>
        <dc:type
           rdf:resource="http://purl.org/dc/dcmitype/StillImage" />
        <dc:title></dc:title>
      </cc:Work>
    </rdf:RDF>
  </metadata>
  <defs
     id="defs12" />
  <sodipodi:namedview
     pagecolor="#ffffff"
     bordercolor="#666666"
     borderopacity="1"
     objecttolerance="10"
     gridtolerance="10"
     guidetolerance="10"
     inkscape:pageopacity="0"
     inkscape:pageshadow="2"
     inkscape:window-width="1146"
     inkscape:window-height="793"
     id="namedview10"
     showgrid="false"
     inkscape:zoom="8.2422925"
     inkscape:cx="6.2950222"
     inkscape:cy="24.022443"
     inkscape:window-x="91"
     inkscape:window-y="3"
     inkscape:window-maximized="0"
     inkscape:current-layer="svg2" />
  <g
     transform="translate(-160.71875,194.28623)"
     id="g4">
    <path
       style="fill:#3e9659"
       d="m 160.71875,-187.02061 21.875,0 0,6.15234 -12.98828,0 0,5 11.09375,0 0,5.78125 -11.09375,0 0,11.69922 -8.88672,0 0,-28.63281 z"
       id="path6"
       inkscape:connector-curvature="0" />
    <path
       style="fill:#3e9659"
       d="m 177.41797,-187.02061 16.5625,0 q 4.14062,0 6.34765,2.05078 2.22657,2.05078 2.22657,5.07812 0,2.53906 -1.58203,4.35547 -1.05469,1.21094 -3.08594,1.91406 3.08594,0.74219 4.53125,2.5586 1.46484,1.79687 1.46484,4.53125 0,2.22656 -1.03515,4.0039 -1.03516,1.77735 -2.83204,2.8125 -1.11328,0.64453 -3.35937,0.9375 -2.98828,0.39063 -3.96484,0.39063 l -15.27344,0 0,-28.63281 z m 8.92578,11.23046 3.84766,0 q 2.07031,0 2.87109,-0.70312 0.82031,-0.72266 0.82031,-2.07031 0,-1.25 -0.82031,-1.95313 -0.80078,-0.70312 -2.8125,-0.70312 l -3.90625,0 0,5.42968 z m 0,11.25 4.51172,0 q 2.28515,0 3.22265,-0.80078 0.9375,-0.82031 0.9375,-2.1875 0,-1.26953 -0.9375,-2.03125 -0.91796,-0.78125 -3.24218,-0.78125 l -4.49219,0 0,5.80078 z"
       id="path8"
       inkscape:connector-curvature="0" />
  </g>
</svg>
